<?xml version="1.0" encoding="utf-8"?>
<svg viewBox="0 0 512 512" fill="#000000" xmlns="http://www.w3.org/2000/svg">
  <g>
    <g>
      <path d="M 399.617 149.938 L 478.345 93.115 L 449.805 67.355 L 370.109 122.739 C 356.367 117.428 290.562 83.813 277.241 85.071 C 246.847 87.944 218.728 108.097 193.669 144.969 C 182.17 161.889 169.964 179.576 157.043 198.304 C 117.171 256.087 71.977 321.582 41.072 374.72 C -0.412 446.047 -9.556 482.917 9.511 501.985 C 15.803 508.277 24.03 511.497 34.799 511.497 C 56.662 511.497 88.988 498.218 136.775 470.426 C 189.913 439.522 255.408 394.327 313.192 354.455 C 331.92 341.534 349.607 329.328 366.527 317.829 C 403.4 292.77 423.552 264.652 426.425 234.257 C 427.645 221.355 404.559 163.232 399.617 149.938 Z M 393.639 231.158 C 391.735 251.315 376.383 271.312 348.016 290.591 C 338.011 297.391 327.748 304.43 317.18 311.705 L 289.616 330.712 C 270.668 343.787 251.539 356.968 232.607 369.823 L 204.773 388.559 C 177.826 406.515 151.681 423.335 127.486 437.691 C 100.864 453.487 78.874 464.864 62.127 471.509 C 43.515 478.894 35.584 478.79 33.08 478.419 C 32.71 475.911 32.606 467.98 39.99 449.372 C 46.634 432.626 58.012 410.636 73.808 384.013 C 83.002 368.516 93.21 352.218 104.076 335.425 L 134.022 358.632 L 154.715 337.42 L 122.542 307.321 C 128.927 297.733 135.459 288.042 142.077 278.3 L 184.791 321.013 L 208.076 297.728 L 160.982 250.635 C 167.574 241.037 174.193 231.437 180.786 221.883 L 232.256 276.981 L 257.614 254.213 L 199.792 194.319 C 206.58 184.458 213.156 174.869 219.531 165.502 L 279.916 225.887 L 303.201 202.602 L 240.24 139.642 C 253.423 126.444 266.844 119.134 280.338 117.859 C 302.051 115.794 326.372 128.555 354.657 156.841 C 382.942 185.123 395.694 209.433 393.639 231.158 Z"/>
    </g>
  </g>
</svg>